<?xml version="1.0" encoding="UTF-8"?>
<svg xmlns="http://www.w3.org/2000/svg" xmlns:xlink="http://www.w3.org/1999/xlink" viewBox="0 0 60 60" width="60px" height="60px">
<g id="surface88262861">
<path style=" stroke:none;fill-rule:nonzero;fill:rgb(100%,100%,100%);fill-opacity:1;" d="M 56.152344 26.507812 L 33.492188 3.847656 C 32.53125 2.882812 31.265625 2.398438 30 2.398438 C 28.734375 2.398438 27.46875 2.882812 26.507812 3.847656 L 22.027344 8.328125 L 27.570312 13.875 C 29.414062 12.792969 31.8125 13.027344 33.394531 14.605469 C 34.972656 16.1875 35.203125 18.585938 34.121094 20.421875 L 39.570312 25.875 C 41.414062 24.792969 43.8125 25.027344 45.394531 26.605469 C 47.269531 28.480469 47.269531 31.519531 45.394531 33.394531 C 43.519531 35.269531 40.480469 35.269531 38.605469 33.394531 C 37.027344 31.8125 36.792969 29.414062 37.875 27.570312 L 32.421875 22.121094 C 32.035156 22.351562 31.625 22.519531 31.199219 22.625 L 31.199219 37.367188 C 33.265625 37.902344 34.800781 39.765625 34.800781 42 C 34.800781 44.652344 32.652344 46.800781 30 46.800781 C 27.347656 46.800781 25.199219 44.652344 25.199219 42 C 25.199219 39.765625 26.734375 37.902344 28.800781 37.367188 L 28.800781 22.625 C 28 22.421875 27.234375 22.023438 26.605469 21.394531 C 25.027344 19.8125 24.796875 17.414062 25.878906 15.578125 L 20.328125 10.027344 L 3.847656 26.507812 C 1.917969 28.433594 1.917969 31.566406 3.847656 33.492188 L 26.507812 56.152344 C 27.46875 57.117188 28.734375 57.601562 30 57.601562 C 31.265625 57.601562 32.53125 57.117188 33.492188 56.152344 L 56.152344 33.492188 C 58.082031 31.566406 58.082031 28.433594 56.152344 26.507812 Z M 56.152344 26.507812 "/>
</g>
</svg>
