<?xml version="1.0" encoding="UTF-8"?>
<!DOCTYPE svg PUBLIC "-//W3C//DTD SVG 1.1//EN" "http://www.w3.org/Graphics/SVG/1.1/DTD/svg11.dtd">
<!-- Creator: CorelDRAW 2020 (64 Bit) -->
<svg xmlns="http://www.w3.org/2000/svg" xml:space="preserve" width="8.4667mm" height="8.4667mm" version="1.1" style="shape-rendering:geometricPrecision; text-rendering:geometricPrecision; image-rendering:optimizeQuality; fill-rule:evenodd; clip-rule:evenodd"
viewBox="0 0 849.53 849.53"
 xmlns:xlink="http://www.w3.org/1999/xlink"
 xmlns:xodm="http://www.corel.com/coreldraw/odm/2003">
 <defs>
  <style type="text/css">
   <![CDATA[
    .fil0 {fill:#FEFEFE;fill-rule:nonzero}
   ]]>
  </style>
 </defs>
 <g id="Camada_x0020_1">
  <metadata id="CorelCorpID_0Corel-Layer"/>
  <path class="fil0" d="M377.08 3.04c-195.78,21.9 -353.26,184.02 -374.54,381.19 -21.28,205.93 93.64,389.95 268.14,460.06 12.76,4.37 25.54,-4.38 25.54,-21.91l0 -70.11c0,0 -17.03,4.38 -38.31,4.38 -59.58,0 -85.13,-52.59 -89.38,-83.25 -4.25,-17.53 -12.77,-30.67 -25.55,-43.82 -12.76,-4.37 -17.02,-4.37 -17.02,-8.76 0,-8.77 12.77,-8.77 17.03,-8.77 25.54,0 46.82,30.67 55.34,43.83 21.27,35.05 46.82,43.82 59.58,43.82 17.03,0 29.79,-4.38 38.31,-8.77 4.24,-30.66 17.02,-61.34 42.56,-78.87 -97.9,-21.9 -170.25,-78.87 -170.25,-175.26 0,-48.19 21.28,-96.39 51.08,-131.44 -4.26,-8.77 -8.52,-30.68 -8.52,-61.35 0,-17.53 0,-43.82 12.76,-70.12 0,0 59.59,0 119.18,56.96 21.28,-8.75 51.07,-13.13 80.86,-13.13 29.8,0 59.59,4.37 85.13,13.13 55.34,-56.96 119.18,-56.96 119.18,-56.96 8.51,26.3 8.51,52.59 8.51,70.12 0,35.05 -4.25,52.58 -8.51,61.34 29.79,35.06 51.07,78.87 51.07,131.45 0,96.38 -72.35,153.35 -170.24,175.25 25.54,21.91 42.56,61.35 42.56,100.78l0 113.92c0,13.14 12.76,26.29 29.79,21.9 157.48,-65.72 268.14,-223.45 268.14,-407.48 0,-262.89 -217.08,-468.83 -472.45,-438.14z"/>
 </g>
</svg>
