<?xml version="1.0" encoding="UTF-8"?>
<!DOCTYPE svg PUBLIC "-//W3C//DTD SVG 1.1//EN" "http://www.w3.org/Graphics/SVG/1.1/DTD/svg11.dtd">
<!-- Creator: CorelDRAW 2020 (64 Bit) -->
<svg xmlns="http://www.w3.org/2000/svg" xml:space="preserve" width="8.4668mm" height="8.4668mm" version="1.1" style="shape-rendering:geometricPrecision; text-rendering:geometricPrecision; image-rendering:optimizeQuality; fill-rule:evenodd; clip-rule:evenodd"
viewBox="0 0 54.74 54.74"
 xmlns:xlink="http://www.w3.org/1999/xlink"
 xmlns:xodm="http://www.corel.com/coreldraw/odm/2003">
 <defs>
  <style type="text/css">
   <![CDATA[
    .fil0 {fill:#FEFEFE;fill-rule:nonzero}
   ]]>
  </style>
 </defs>
 <g id="Camada_x0020_1">
  <metadata id="CorelCorpID_0Corel-Layer"/>
  <path class="fil0" d="M54.08 0.76c-0.49,-0.48 -1.18,-0.76 -1.91,-0.76l-49.61 0c-0.73,0 -1.42,0.28 -1.91,0.76 -0.49,0.48 -0.72,1.13 -0.64,1.78l5.64 45.28c0.11,0.92 0.84,1.69 1.84,1.94l19.16 4.88c0.23,0.06 0.47,0.09 0.7,0.09 0.24,0 0.47,-0.03 0.7,-0.09l19.16 -4.88c1,-0.25 1.73,-1.02 1.84,-1.94l5.64 -45.28c0.08,-0.64 -0.15,-1.29 -0.64,-1.78zm-12.58 22.25l-1.14 16.64 -12.91 3.76 -12.91 -3.76 -0.49 -7.96 6.53 0 0.16 3.62 6.7 2.03 6.7 -2.03 0.49 -6.51 -14.38 0 -0.33 -5.79 15.03 0 0.49 -5.79 -22.55 0 -0.49 -5.79 29.9 0 -0.82 11.58z"/>
 </g>
</svg>
