<?xml version="1.0" encoding="UTF-8"?>
<!DOCTYPE svg PUBLIC "-//W3C//DTD SVG 1.1//EN" "http://www.w3.org/Graphics/SVG/1.1/DTD/svg11.dtd">
<!-- Creator: CorelDRAW 2020 (64 Bit) -->
<svg xmlns="http://www.w3.org/2000/svg" xml:space="preserve" width="8.4668mm" height="8.4668mm" version="1.1" style="shape-rendering:geometricPrecision; text-rendering:geometricPrecision; image-rendering:optimizeQuality; fill-rule:evenodd; clip-rule:evenodd"
viewBox="0 0 199.15 199.15"
 xmlns:xlink="http://www.w3.org/1999/xlink"
 xmlns:xodm="http://www.corel.com/coreldraw/odm/2003">
 <defs>
  <style type="text/css">
   <![CDATA[
    .fil0 {fill:#FEFEFE;fill-rule:nonzero}
   ]]>
  </style>
 </defs>
 <g id="Camada_x0020_1">
  <metadata id="CorelCorpID_0Corel-Layer"/>
  <path class="fil0" d="M181.04 0l-162.94 0c-10,0 -18.1,8.1 -18.1,18.1l0 162.94c0,10 8.1,18.1 18.1,18.1l162.94 0c10,0 18.1,-8.1 18.1,-18.1l0 -162.94c0,-10 -8.1,-18.1 -18.1,-18.1zm-118.09 162.94l-26.7 0 0 -85.92 26.7 0 0 85.92zm-13.62 -98.21c-8.61,0 -15.57,-6.98 -15.57,-15.57 0,-8.59 6.97,-15.56 15.57,-15.56 8.58,0 15.56,6.98 15.56,15.56 0,8.59 -6.98,15.57 -15.56,15.57zm113.65 98.21l-26.68 0 0 -41.78c0,-9.97 -0.18,-22.78 -13.88,-22.78 -13.9,0 -16.03,10.85 -16.03,22.06l0 42.51 -26.69 0 0 -85.92 25.62 0 0 11.74 0.36 0c3.57,-6.76 12.28,-13.88 25.26,-13.88 27.04,0 32.04,17.8 32.04,40.93l0 47.13z"/>
 </g>
</svg>
