<?xml version="1.0" encoding="UTF-8"?>
<!DOCTYPE svg PUBLIC "-//W3C//DTD SVG 1.1//EN" "http://www.w3.org/Graphics/SVG/1.1/DTD/svg11.dtd">
<!-- Creator: CorelDRAW 2020 (64 Bit) -->
<svg xmlns="http://www.w3.org/2000/svg" xml:space="preserve" width="10.8899mm" height="8.4699mm" version="1.1" style="shape-rendering:geometricPrecision; text-rendering:geometricPrecision; image-rendering:optimizeQuality; fill-rule:evenodd; clip-rule:evenodd"
viewBox="0 0 162.94 126.73"
 xmlns:xlink="http://www.w3.org/1999/xlink"
 xmlns:xodm="http://www.corel.com/coreldraw/odm/2003">
 <defs>
  <style type="text/css">
   <![CDATA[
    .fil0 {fill:#FEFEFE;fill-rule:nonzero}
   ]]>
  </style>
 </defs>
 <g id="Camada_x0020_1">
  <metadata id="CorelCorpID_0Corel-Layer"/>
  <path class="fil0" d="M150.87 0l-138.8 0c-6.67,0 -12.07,5.4 -12.07,12.07l0 102.59c0,6.67 5.4,12.07 12.07,12.07l138.8 0c6.67,0 12.07,-5.4 12.07,-12.07l0 -102.59c0,-6.67 -5.4,-12.07 -12.07,-12.07zm0 107.84c-0.14,3.81 -3.32,6.83 -7.19,6.83l-11.99 0 0 -75.82 -50.23 36.5 -52.8 -34.53 0 73.85 -9.41 -0c-3.87,0 -7.05,-3.02 -7.19,-6.83l0 -88.86c0,-3.77 3.11,-6.83 6.94,-6.83l3.62 0 58.84 40.23 58.84 -40.24 3.62 0c3.83,0 6.94,3.06 6.94,6.83l0 88.86z"/>
 </g>
</svg>
