<?xml version="1.0" encoding="UTF-8"?>
<!DOCTYPE svg PUBLIC "-//W3C//DTD SVG 1.1//EN" "http://www.w3.org/Graphics/SVG/1.1/DTD/svg11.dtd">
<!-- Creator: CorelDRAW 2020 (64 Bit) -->
<svg xmlns="http://www.w3.org/2000/svg" xml:space="preserve" width="8.4668mm" height="8.4668mm" version="1.1" style="shape-rendering:geometricPrecision; text-rendering:geometricPrecision; image-rendering:optimizeQuality; fill-rule:evenodd; clip-rule:evenodd"
viewBox="0 0 404.4 404.4"
 xmlns:xlink="http://www.w3.org/1999/xlink"
 xmlns:xodm="http://www.corel.com/coreldraw/odm/2003">
 <defs>
  <style type="text/css">
   <![CDATA[
    .fil0 {fill:#FEFEFE;fill-rule:nonzero}
   ]]>
  </style>
 </defs>
 <g id="Camada_x0020_1">
  <metadata id="CorelCorpID_0Corel-Layer"/>
  <path class="fil0" d="M399.58 5.62c-3.6,-3.58 -8.73,-5.62 -14.1,-5.62l-366.55 0c-5.37,0 -10.5,2.04 -14.1,5.62 -3.6,3.58 -5.3,8.35 -4.71,13.12l41.68 334.57c0.84,6.8 6.23,12.49 13.61,14.36l141.58 36.07c1.7,0.44 3.46,0.66 5.21,0.66 1.74,0 3.5,-0.22 5.2,-0.66l141.58 -36.07c7.38,-1.87 12.76,-7.56 13.61,-14.36l41.69 -334.57c0.61,-4.76 -1.1,-9.54 -4.7,-13.12zm-90.83 119.79l-169.02 0 4.01 42.91 160.94 0 -12.07 126.75 -90.34 25.62 -0.89 -0.25 -89.34 -25.4 -4.88 -51.65 43.76 0 1.91 20.07 49.91 9.81 49.04 -9.82 5.21 -54.23 -153.12 -0 -11.85 -124.81 220.68 0 -3.94 41.01z"/>
 </g>
</svg>
