<?xml version="1.0" encoding="UTF-8"?>
<!DOCTYPE svg PUBLIC "-//W3C//DTD SVG 1.1//EN" "http://www.w3.org/Graphics/SVG/1.1/DTD/svg11.dtd">
<!-- Creator: CorelDRAW 2020 (64 Bit) -->
<svg xmlns="http://www.w3.org/2000/svg" xml:space="preserve" width="8.4667mm" height="8.4668mm" version="1.1" style="shape-rendering:geometricPrecision; text-rendering:geometricPrecision; image-rendering:optimizeQuality; fill-rule:evenodd; clip-rule:evenodd"
viewBox="0 0 219.66 219.67"
 xmlns:xlink="http://www.w3.org/1999/xlink"
 xmlns:xodm="http://www.corel.com/coreldraw/odm/2003">
 <defs>
  <style type="text/css">
   <![CDATA[
    .fil0 {fill:#FEFEFE;fill-rule:nonzero}
   ]]>
  </style>
 </defs>
 <g id="Camada_x0020_1">
  <metadata id="CorelCorpID_0Corel-Layer"/>
  <path class="fil0" d="M218.26 1.55c-1.02,-0.99 -2.44,-1.55 -3.95,-1.55l-208.97 0c-1.5,0 -2.93,0.56 -3.95,1.55 -1.02,0.99 -1.52,2.32 -1.38,3.65l18.83 188.28c0.2,1.97 1.73,3.62 3.86,4.17l85.62 21.84c0.47,0.12 0.97,0.18 1.46,0.18 0.49,0 0.99,-0.06 1.47,-0.18l85.7 -21.84c2.13,-0.54 3.66,-2.2 3.86,-4.17l18.81 -188.28c0.13,-1.33 -0.37,-2.66 -1.38,-3.65zm-177.96 127.4l37.44 9.27 0 -95.25 21.39 0 0 124.16 -58.83 -14.57 0 -23.61zm139.34 -33.45l-5.64 58.5 -53.48 13.13 0 -21.97 36.1 -8.86 1.34 -17.91 -37.44 5.76 0 -81.18 64.18 0 -1.84 19.1 -40.94 0 0 38.2 37.73 -4.78z"/>
 </g>
</svg>
