<?xml version="1.0" encoding="UTF-8"?>
<!DOCTYPE svg PUBLIC "-//W3C//DTD SVG 1.1//EN" "http://www.w3.org/Graphics/SVG/1.1/DTD/svg11.dtd">
<!-- Creator: CorelDRAW 2020 (64 Bit) -->
<svg xmlns="http://www.w3.org/2000/svg" xml:space="preserve" width="37.0382mm" height="48.0494mm" version="1.1" style="shape-rendering:geometricPrecision; text-rendering:geometricPrecision; image-rendering:optimizeQuality; fill-rule:evenodd; clip-rule:evenodd"
viewBox="0 0 112537.18 145993.71"
 xmlns:xlink="http://www.w3.org/1999/xlink"
 xmlns:xodm="http://www.corel.com/coreldraw/odm/2003">
 <defs>
  <style type="text/css">
   <![CDATA[
    .fil5 {fill:#2F2E41;fill-rule:nonzero}
    .fil0 {fill:#3F3D56;fill-rule:nonzero}
    .fil2 {fill:#6C63FF;fill-rule:nonzero}
    .fil3 {fill:#9E616A;fill-rule:nonzero}
    .fil4 {fill:#CACACA;fill-rule:nonzero}
    .fil1 {fill:white;fill-rule:nonzero}
   ]]>
  </style>
 </defs>
 <g id="Camada_x0020_1">
  <metadata id="CorelCorpID_0Corel-Layer"/>
  <g id="_1764456758272">
   <path class="fil0" d="M54790.41 145204.94l-42662.6 -17172.48c-3935.04,-1589.09 -6512.83,-5409.89 -6512.83,-9653.94 0,-1326.87 255.53,-2646.15 748.66,-3876.71l43467.78 -107988.99c1588.78,-3935.04 5409.58,-6512.83 9653.63,-6512.83 1326.87,0 2646.45,255.53 3876.71,748.66l42662.9 17172.48c3934.74,1589.09 6512.52,5409.89 6512.52,9653.94 0,1326.87 -255.53,2646.45 -748.66,3876.71l-43467.47 107989.29c-1589.09,3934.74 -5409.89,6512.52 -9653.94,6512.52 -1326.87,0 -2646.45,-255.53 -3876.71,-748.66l0 0z"/>
   <path class="fil1" d="M104341.68 20724.07l-4749.03 -1911.46c-203.88,-82.04 -422.34,-124.27 -642.32,-124.27 -703.39,0 -1336.6,427.2 -1599.72,1079.24 -537.8,1333.56 -1831.86,2206.49 -3269.94,2206.49 -449.99,0 -896.33,-86.59 -1313.5,-254.01l-23225.59 -9348.58c-1333.56,-537.8 -2206.49,-1831.86 -2206.49,-3269.94 0,-449.99 86.29,-896.33 254.01,-1313.5 81.73,-204.18 123.66,-422.64 123.66,-642.62 0,-703.09 -427.2,-1336.6 -1079.24,-1599.72l-4187.23 -1685.41c-933.1,-373.42 -1932.73,-567.27 -2939.36,-567.27 -3219.5,0 -6117.84,1954.3 -7322.87,4939.54l-43158.77 107221.49c-373.12,932.79 -566.97,1932.73 -566.97,2939.36 0,3219.19 1954.3,6117.53 4939.24,7322.87l41895.4 16863.47c932.79,373.42 1932.43,566.97 2939.05,566.97 3219.5,0 6117.84,-1954.3 7322.87,-4939.24l43158.77 -107221.79c373.42,-932.79 566.97,-1932.43 566.97,-2939.05 0,-3219.5 -1954.3,-6117.84 -4939.24,-7322.87l0.3 0.3z"/>
   <path class="fil1" d="M88096.22 16686.33l-13102.83 -5274.07c-190.81,-76.87 -315.99,-262.21 -315.99,-467.91 0,-278.62 225.75,-504.38 504.38,-504.38 64.72,0 128.52,12.15 188.38,36.46l13102.83 5274.07c190.81,76.57 315.99,261.91 315.99,467.91 0,278.62 -225.75,504.38 -504.38,504.38 -64.72,0 -128.52,-12.46 -188.38,-36.46l0 0z"/>
   <circle class="fil1" cx="90343.57" cy="17047.15" r="403.5"/>
   <path class="fil0" d="M98905.36 64539.14c-343.64,-138.86 -568.79,-472.47 -568.79,-843.16 0,-115.76 22.48,-230.92 65.33,-338.17l6630.42 -16472.12c138.55,-343.34 471.86,-568.18 841.94,-568.18 501.34,0 908.18,406.84 908.18,908.18 0,115.76 -22.18,230.62 -65.33,338.17l-6630.42 16472.12c-138.86,343.34 -472.47,568.49 -842.85,568.49 -116.07,0 -231.22,-22.48 -338.48,-65.33l0 0z"/>
   <path class="fil0" d="M41470.93 27282.48c-343.34,-138.55 -568.49,-472.17 -568.49,-842.85 0,-115.76 22.48,-230.92 65.33,-338.48l1507.05 -3743.62c137.64,-344.25 471.86,-570.31 842.85,-570.31 501.34,0 907.88,406.54 907.88,907.88 0,116.67 -22.48,232.44 -66.24,340.61l-1506.75 3743.62c-138.86,343.64 -472.47,568.79 -842.85,568.79 -116.07,0 -231.22,-22.48 -338.48,-65.63l-0.3 0z"/>
   <path class="fil0" d="M38683.19 34208.23c-343.34,-138.55 -568.49,-472.17 -568.49,-842.85 0,-115.76 22.48,-230.92 65.33,-338.48l1507.05 -3743.62c137.94,-344.56 471.56,-570.61 842.85,-570.61 501.34,0 907.88,406.84 907.88,908.18 0,116.67 -22.48,232.44 -66.24,340.61l-1506.75 3743.62c-138.86,343.64 -472.47,568.79 -842.85,568.79 -116.07,0 -231.22,-22.48 -338.48,-65.33l-0.3 -0.3z"/>
   <path class="fil0" d="M78714.83 50107.31l-18123.8 -7295.22c-571.83,-231.53 -946.46,-787.56 -946.46,-1404.66 0,-192.64 36.76,-383.75 108.17,-562.41l4349.48 -10806.1c231.83,-571.83 787.86,-946.46 1404.96,-946.46 192.64,0 383.75,36.76 562.41,108.17l18123.5 7294.92c571.83,231.83 946.46,787.86 946.46,1404.96 0,192.64 -36.76,383.45 -108.17,562.11l-4349.79 10806.4c-231.83,571.83 -787.86,946.16 -1404.96,946.16 -192.33,0 -383.45,-36.46 -562.11,-107.86l0.3 0zm-10983.85 -20985.07c-82.04,-32.51 -169.54,-49.53 -257.66,-49.53 -282.88,0 -537.8,171.67 -644.14,433.88l-4349.48 10805.49c-32.21,82.04 -49.22,169.54 -49.22,257.66 0,282.88 171.67,537.8 433.88,644.14l18122.28 7294.61c81.73,32.51 169.54,49.53 257.66,49.53 283.18,0 538.1,-171.67 644.45,-433.88l2382.42 -9967.2c32.51,-81.73 49.53,-169.24 49.53,-257.35 0,-282.88 -171.67,-537.8 -433.88,-644.14l-16155.83 -8133.21z"/>
   <path class="fil0" d="M78822.09 43231.08l-0.91 -0.61 -13990.35 -5631.39c-386.49,-156.48 -639.58,-532.33 -639.58,-949.5 0,-12.46 0.3,-25.52 0.61,-37.98l264.04 -6552.63c22.18,-547.22 472.47,-979.89 1020.3,-979.89 130.04,0 258.87,24.91 379.8,73.23l18514.85 7416.15c387.09,155.26 641.1,530.51 641.1,947.68 0,127.92 -24,254.92 -70.79,373.72l60.46 60.77 -580.34 578.21 0 -0.3 -4498.06 4478.61c-190.81,190.51 -449.99,297.76 -719.8,297.76 -130.65,0 -260.39,-24.91 -381.32,-73.83l0 0z"/>
   <path class="fil0" d="M68316.49 43707.51l-6222.05 -2504.56c-235.78,-94.8 -390.44,-323.59 -390.44,-577.91 0,-343.95 279.23,-623.18 623.18,-623.18 79.61,0 158.6,15.5 232.44,44.97l6222.36 2504.56c235.78,95.1 390.13,323.89 390.13,577.91 0,344.25 -279.23,623.18 -623.18,623.18 -79.61,0 -158.6,-15.19 -232.44,-44.97l0 0z"/>
   <circle class="fil1" cx="72168.82" cy="40111.3" r="1523.12"/>
   <path class="fil0" d="M51689.41 117247.32l-18123.5 -7294.92c-571.83,-231.83 -946.46,-787.86 -946.46,-1404.96 0,-192.64 36.76,-383.75 108.17,-562.41l4349.79 -10806.1c231.53,-571.83 787.56,-946.46 1404.66,-946.46 192.64,0 383.75,36.76 562.41,108.17l18123.5 7294.92c571.83,231.83 946.46,787.86 946.46,1404.96 0,192.64 -37.07,383.45 -108.17,562.11l-4349.79 10806.4c-231.83,571.83 -787.56,946.16 -1404.96,946.16 -192.33,0 -383.45,-36.46 -562.11,-107.86l0 0zm-12950.61 -20146.47c-81.73,-32.81 -169.24,-49.53 -257.35,-49.53 -283.18,0 -537.8,171.67 -644.14,433.88l-4349.48 10805.49c-32.51,81.73 -49.53,169.24 -49.53,257.35 0,282.88 171.97,537.8 433.88,644.14l18122.28 7294.92c82.04,32.51 169.54,49.22 257.96,49.22 282.88,0 537.8,-171.67 644.14,-433.88l4349.48 -10805.19c32.51,-82.04 49.53,-169.54 49.53,-257.66 0,-282.88 -171.67,-537.8 -433.88,-644.14l-18122.89 -7294.61z"/>
   <path class="fil0" d="M51796.97 110371.1l-0.91 -0.3 -13990.35 -5631.39c-386.49,-156.78 -639.58,-532.63 -639.58,-949.81 0,-12.46 0.3,-25.52 0.61,-37.98l264.34 -6552.63c21.88,-547.22 472.47,-979.89 1020.3,-979.89 129.74,0 258.87,24.91 379.5,73.23l18514.85 7416.15c387.09,155.26 641.1,530.81 641.1,947.68 0,127.92 -24.31,254.92 -70.79,373.72l60.46 60.77 -580.34 578.21 -0.3 0 -4497.76 4478.31c-190.81,190.51 -449.99,297.76 -719.8,297.76 -130.65,0 -260.39,-24.91 -381.32,-73.83l0 0z"/>
   <path class="fil0" d="M41291.36 110847.83l-6222.05 -2504.56c-235.78,-95.1 -390.13,-323.89 -390.13,-578.21 0,-344.25 278.93,-623.18 623.18,-623.18 79.61,0 158.3,15.5 232.13,44.97l6222.36 2504.56c235.78,94.8 390.44,323.89 390.44,578.21 0,343.95 -278.93,623.18 -623.18,623.18 -79.61,0 -158.91,-15.5 -232.74,-45.27l0 0.3z"/>
   <circle class="fil1" cx="45143.67" cy="107251.44" r="1523.12"/>
   <circle class="fil2" cx="58869.5" cy="73219.93" r="16659.95"/>
   <path class="fil0" d="M65192.09 83673.52l-18123.5 -7295.22c-572.13,-231.83 -946.46,-787.86 -946.46,-1404.96 0,-192.33 36.76,-383.75 107.86,-562.41l4349.79 -10806.1c231.83,-571.83 787.86,-946.46 1404.96,-946.46 192.33,0 383.45,37.07 562.11,108.17l18123.8 7295.22c571.83,231.53 946.46,787.56 946.46,1404.66 0,192.64 -37.07,383.75 -108.17,562.11l-4349.79 10806.4c-231.83,571.83 -787.86,946.16 -1405.26,946.16 -192.03,0 -383.14,-36.46 -561.8,-107.86l0 0.3zm-12950.91 -20146.78c-81.73,-32.51 -169.24,-49.53 -257.35,-49.53 -282.88,0 -537.8,171.67 -644.14,433.88l-4349.48 10805.49c-32.21,81.73 -49.22,169.24 -49.22,257.35 0,282.88 171.67,537.8 433.88,644.14l18122.28 7294.61c81.73,32.81 169.54,49.53 257.66,49.53 283.18,0 538.1,-171.67 644.45,-433.88l4349.18 -10805.19c32.81,-82.04 49.53,-169.24 49.53,-257.66 0,-282.88 -171.67,-537.8 -433.88,-644.14l-18122.89 -7294.61z"/>
   <path class="fil0" d="M65299.65 76796.99l-0.91 -0.3 -13990.35 -5631.39c-386.49,-156.78 -639.89,-532.63 -639.89,-949.5 0,-12.76 0.61,-25.52 0.91,-38.28l264.04 -6552.33c22.18,-547.22 472.47,-979.89 1020.3,-979.89 130.04,0 258.87,24.91 379.5,73.23l18514.85 7415.84c387.09,155.26 641.41,530.81 641.41,947.98 0,127.61 -24.31,254.62 -71.1,373.42l60.77 60.77 -580.64 578.51 0 -0.3 -4497.76 4478.31c-191.12,190.51 -449.99,297.76 -719.8,297.76 -130.65,0 -260.39,-24.91 -381.32,-73.83l0 0z"/>
   <path class="fil0" d="M54794.05 77273.72l-6222.36 -2504.56c-235.78,-95.1 -390.13,-323.89 -390.13,-578.21 0,-343.95 278.93,-623.18 623.18,-623.18 79.61,0 158.6,15.5 232.44,44.97l6222.05 2504.56c235.78,95.1 390.44,323.89 390.44,577.91 0,344.25 -279.23,623.18 -623.18,623.18 -79.61,0 -158.6,-15.19 -232.44,-44.97l0 0.3z"/>
   <path class="fil3" d="M13849.07 85414.83c0,-3.34 0,-7.6 0,-11.24 0,-1203.82 -976.24,-2180.06 -2180.06,-2180.06 -124.57,0 -249.45,10.94 -372.21,31.9l-3751.22 -6778.39 -1867.41 3566.48 3848.75 5890.26c237.91,983.23 1118.44,1675.99 2130.23,1675.99 1210.2,0 2191.91,-981.71 2191.91,-2191.91 0,-0.91 0,-2.13 0,-3.04z"/>
   <path class="fil4" d="M11425.33 58035.12l-3857.26 -270.42c0,0 -475.21,-64.72 -1782.03,2007.48 -1306.82,2072.19 -5786.04,12580.23 -5786.04,12580.23l7847.6 11390.39 2548.92 -2537.37 -4556.7 -9165.36 4367.41 -6134.24 1218.1 -7870.69z"/>
   <path class="fil3" d="M53952.11 70349.18c-215.42,81.73 -444.22,123.97 -674.53,123.97 -909.09,0 -1689.96,-646.27 -1859.51,-1539.26l-6654.11 -979.58 2328.64 -2606.35 5961.97 1329.61c76.26,-9.12 153.74,-13.67 230.92,-13.67 1050.68,0 1902.65,851.97 1902.65,1902.65 0,793.63 -493.13,1504.62 -1236.33,1782.33l0.3 0.3z"/>
   <polygon class="fil3" points="28373.87,143237.57 31217.52,143237.57 32570.22,132269.82 28373.57,132270.13 "/>
   <path class="fil5" d="M27648.61 142309.33l800.32 0 3124.7 -1270.66 1674.77 1270.36 0.3 0c1970.71,0 3568.61,1597.6 3568.61,3568.31l0 116.07 -9168.4 0.3 -0.3 -3684.37z"/>
   <polygon class="fil3" points="11221.45,143237.57 14065.1,143237.57 15417.8,132269.82 11221.15,132270.13 "/>
   <path class="fil5" d="M10496.18 142309.33l800.32 0 3124.7 -1270.66 1674.77 1270.36 0.3 0c1970.71,0 3568.61,1597.6 3568.61,3568.31l0 116.07 -9168.4 0.3 -0.3 -3684.37z"/>
   <polygon class="fil5" points="12318.32,89228.94 10439.06,100557.65 11070.75,136973.89 15696.42,136973.89 22802.95,98453.86 27915.07,136340.68 32565.66,136139.24 34886.7,97896.61 32801.14,88135.12 "/>
   <path class="fil4" d="M29313.65 55539.07l-4950.48 -729.52 -1052.81 -2732.74 -6974.67 -9.72 -1567.21 3568.31 -7127.19 2152.1 5904.84 20284.42c0,0 -3254.14,7538.29 -2453.82,7570.8 800.32,32.21 1194.7,1176.47 636.24,1778.08 -558.16,601.3 -1678.11,218.77 -1118.13,1132.11 320.25,493.74 535.98,1050.38 631.08,1631.63 95.41,580.94 23616.33,5041.94 22308,-1459.65 -162.55,-808.22 -2135.7,-12005.36 -2135.7,-12005.36 0,0 1718.22,-1901.13 983.84,-2656.78 -734.38,-755.65 -346.68,-8736.03 -346.68,-8736.03l-2737.3 -9787.63z"/>
   <polygon class="fil4" points="28503.31,56425.37 29313.65,55539.07 40321.81,61993.86 49636.66,65708.62 49817.14,68958.81 37720.32,67514.35 29158.39,63327.73 "/>
   <path class="fil3" d="M25442.72 44238.62c0,0 0,0 0,0 0,3217.98 -2609.69,5827.36 -5827.36,5827.36 -458.5,0 -916.99,-54.08 -1363.33,-159.21 -2620.02,-628.34 -4468.28,-2973.39 -4468.28,-5668.76 0,-3218.89 2610.6,-5829.49 5829.49,-5829.49 3218.89,0 5829.49,2610.6 5829.49,5829.49 0,0 0,0.91 0,0.91l0 -0.3z"/>
   <g>
    <path class="fil5" d="M21176.19 48963.95l-4185.41 807.31c-230.31,62.29 -468.83,93.89 -707.34,93.89 -163.47,0 -327.84,-15.19 -488.27,-44.36 -622.57,-163.77 -1039.74,-738.33 -1358.47,-1297.7 -1038.83,-1841.88 -1584.83,-3923.19 -1584.83,-6037.62 0,-871.72 94.49,-1743.44 277.41,-2594.5 143.11,-649 448.47,-1392.5 1099.9,-1524.98 189.29,-38.28 403.2,-23.09 552.99,-144.93 220.59,-179.57 147.97,-559.98 -68.67,-744.11 -235.78,-162.55 -513.79,-252.8 -799.41,-259.78 373.42,-439.05 917.3,-698.23 1493.38,-710.68l-1119.35 -621.96c539.32,-374.33 1263.67,-340 1899.92,-178.35 635.94,161.64 1248.18,435.4 1901.74,496.48 820.37,77.18 1630.11,-186.56 2447.74,-288.34 229.7,-24.31 460.93,-37.37 691.85,-37.37 2257.23,0 4348.27,1185.89 5506.81,3122.57 222.11,350.94 363.39,748.06 412.01,1160.37 5.47,48.01 7.9,96.62 7.9,144.93 0,370.08 -153.74,724.05 -424.16,975.94 -458.5,385.57 -1180.42,329.06 -1624.33,731.04 -342.12,309.61 -427.5,810.04 -446.65,1271.27 -19.45,461.23 2.43,942.82 -195.07,1359.99 -197.5,417.17 -713.42,730.74 -1125.73,523.52 -18.23,-571.22 -676.65,-975.63 -1236.02,-857.74 -559.37,117.89 -972.29,626.52 -1133.33,1174.95 -161.04,548.74 -113.03,1134.54 -43.15,1701.81 70.19,567.27 161.34,1141.23 82.64,1707.28l165.9 71.1zm0 0l0 0 0 0z"/>
   </g>
   <circle class="fil2" cx="57996.02" cy="73846.44" r="1523.12"/>
  </g>
 </g>
</svg>
